#!OML:ASF E:\Steps\Project 1\Capture day 1\Session 2\Subject.ASF
:FULLY-SPECIFIED
:DEGREES
21
root -0.865162 17.9774 20.9779 -154.29 -2.79424 177.652
lowerback -27.2574 -2.8074 -6.85818
upperback 0.425109 -1.85666 0.0494873
thorax 15.2575 -1.48596 3.06112
lowerneck 3.99023 -0.853806 -2.68606
upperneck 12.9894 -0.734154 6.44465
head 3.58799 0.162596 2.63954
rclavicle -8.49804e-015 -9.14409e-015
rhumerus -38.3306 -19.9297 -75.8572
rradius 32.0422
rwrist 1.13913
rhand -9.34977 -57.5687
rfingers 7.12502
rthumb 16.6097 -86.8779
lclavicle -8.49804e-015 -9.14409e-015
lhumerus -31.9682 35.2713 59.7153
lradius 39.6671
lwrist -47.931
lhand -23.2957 -12.6849
lfingers 7.12502
lthumb 3.15757 17.2715
rfemur -22.9277 4.53651 19.9703
rtibia 5.21773
rfoot -17.3871 -2.96293
rtoes -12.7931
lfemur -23.954 -9.02051 -21.2955
ltibia 7.29446
lfoot -5.38348 -4.08755
ltoes -12.7759
22
root -0.864533 17.9787 20.979 -154.244 -2.82531 177.719
lowerback -27.2252 -2.78167 -6.78925
upperback 0.367363 -1.8548 0.0485964
thorax 15.172 -1.47873 3.02448
lowerneck 4.14661 -0.934336 -2.32152
upperneck 13.0914 -0.794637 6.14319
head 3.58907 0.147317 2.46861
rclavicle -7.45443e-016 6.36111e-015
rhumerus -38.3706 -19.839 -75.9048
rradius 32.1762
rwrist 1.04391
rhand -9.19976 -57.995
rfingers 7.12502
rthumb 16.7541 -87.2921
lclavicle -7.45443e-016 6.36111e-015
lhumerus -32.9608 36.9904 58.8712
lradius 39.8661
lwrist -50.148
lhand -23.2602 -12.545
lfingers 7.12502
lthumb 3.1918 17.4108
rfemur -23.0149 4.81755 19.9852
rtibia 5.27549
rfoot -17.4313 -3.20776
rtoes -12.2029
lfemur -24.0491 -8.86338 -21.2409
ltibia 7.35577
lfoot -5.25698 -4.18646
ltoes -13.0583
23
root -0.863813 17.9799 20.9796 -154.216 -2.82905 177.729
lowerback -27.1765 -2.74957 -6.78089
upperback 0.329369 -1.82124 0.0306511
thorax 15.099 -1.46137 3.01487
lowerneck 4.29144 -1.02497 -1.97673
upperneck 13.2037 -0.8678 5.85274
head 3.59683 0.126157 2.30635
rclavicle -8.94531e-016 1.19271e-014
rhumerus -38.3396 -19.7348 -75.9781
rradius 32.2409
rwrist 0.839655
rhand -9.36659 -58.3133
rfingers 7.12502
rthumb 16.5935 -87.6239
lclavicle -8.94531e-016 1.19271e-014
lhumerus -34.0574 38.6596 57.9565
lradius 40.1438
lwrist -52.2904
lhand -23.212 -12.3783
lfingers 7.12502
lthumb 3.23841 17.5768
rfemur -23.0464 5.00481 19.9559
rtibia 5.26978
rfoot -17.4058 -3.3306
rtoes -11.53
lfemur -24.0991 -8.74027 -21.2486
ltibia 7.39263
lfoot -5.2302 -4.25615
ltoes -13.8262
24
root -0.864164 17.9787 20.9794 -154.193 -2.83034 177.729
lowerback -27.1725 -2.73125 -6.79658
upperback 0.337871 -1.79097 0.0315611
thorax 15.1043 -1.449 3.03633
lowerneck 3.99239 -1.23079 -1.35675
upperneck 13.7284 -1.0693 5.33547
head 3.83238 0.0654684 2.02715
rclavicle -6.80837e-015 -1.78906e-014
rhumerus -38.2142 -19.7036 -76.0015
rradius 32.2631
rwrist 0.865139
rhand -9.20485 -57.8944
rfingers 7.12502
rthumb 16.7492 -87.1919
lclavicle -6.80837e-015 -1.78906e-014
lhumerus -35.7127 41.833 56.679
lradius 40.9369
lwrist -56.0264
lhand -23.0768 -12.0913
lfingers 7.12502
lthumb 3.36894 17.8618
rfemur -23.06 5.06933 19.9307
rtibia 5.22046
rfoot -17.3574 -3.35532
rtoes -11.0413
lfemur -24.1125 -8.8516 -21.2215
ltibia 7.38131
lfoot -5.30931 -4.15698
ltoes -14.5885
25
root -0.864902 17.9781 20.9777 -154.223 -2.86032 177.749
lowerback -27.1593 -2.70861 -6.80223
upperback 0.365259 -1.75575 0.0336196
thorax 15.1267 -1.43353 3.05588
lowerneck 3.81528 0.223982 -1.21066
upperneck 13.7457 -1.53963 5.59217
head 3.88758 -1.10546 2.01557
rclavicle 6.95746e-015 8.74653e-015
rhumerus -38.0864 -19.5993 -76.0774
rradius 32.3261
rwrist 0.70987
rhand -9.13685 -57.6312
rfingers 7.12502
rthumb 16.8147 -86.9232
lclavicle 6.95746e-015 8.74653e-015
lhumerus -35.8851 42.1893 56.4084
lradius 39.7223
lwrist -57.4849
lhand -23.0293 -12.0325
lfingers 7.12502
lthumb 3.41484 17.9199
rfemur -23.0426 5.08069 19.9513
rtibia 5.24198
rfoot -17.397 -3.35235
rtoes -10.6061
lfemur -24.069 -9.01242 -21.164
ltibia 7.33867
lfoot -5.25154 -4.02817
ltoes -14.665
26
root -0.865551 17.9792 20.974 -154.313 -2.91357 177.753
lowerback -27.062 -2.69904 -6.80636
upperback 0.381818 -1.74301 0.0222276
thorax 15.0974 -1.42583 3.05365
lowerneck 3.29754 0.0334014 -1.21117
upperneck 14.4063 -1.91292 5.71535
head 4.24403 -1.29155 2.05665
rclavicle -1.53561e-014 -9.14409e-015
rhumerus -38.0691 -19.4543 -76.1642
rradius 32.4858
rwrist 0.533768
rhand -9.08959 -57.3743
rfingers 7.12502
rthumb 16.8602 -86.6624
lclavicle -1.53561e-014 -9.14409e-015
lhumerus -36.1935 42.5897 55.94
lradius 38.5534
lwrist -58.9022
lhand -22.9743 -11.9723
lfingers 7.12502
lthumb 3.46791 17.9792
rfemur -22.9289 5.0505 19.9795
rtibia 5.26817
rfoot -17.4429 -3.34456
rtoes -10.4566
lfemur -23.9606 -8.97591 -21.1762
ltibia 7.31519
lfoot -5.2607 -4.0987
ltoes -15.192
27
root -0.865641 17.9796 20.9705 -154.346 -2.99471 177.721
lowerback -26.9824 -2.7406 -6.83654
upperback 0.365889 -1.79504 0.0198633
thorax 15.0461 -1.4496 3.04972
lowerneck 3.60627 0.249054 -1.13013
upperneck 13.9838 -1.51855 5.48295
head 4.00891 -1.09353 1.96706
rclavicle -3.57812e-015 -1.15295e-014
rhumerus -38.1273 -19.3643 -76.2074
rradius 32.7042
rwrist 0.597924
rhand -9.47329 -56.6419
rfingers 7.12502
rthumb 16.4908 -85.961
lclavicle -3.57812e-015 -1.15295e-014
lhumerus -31.3951 7.67177 79.5177
lradius 21.5234
lwrist -6.25969
lhand -22.6262 -13.3276
lfingers 7.12502
lthumb 3.80403 16.6182
rfemur -22.8387 5.0161 19.9657
rtibia 5.23624
rfoot -17.4029 -3.41059
rtoes -10.7141
lfemur -23.9052 -8.93239 -21.2217
ltibia 7.31307
lfoot -5.3266 -4.22691
ltoes -15.1153
28
root -0.865818 17.9776 20.9695 -154.267 -3.03915 177.64
lowerback -27.0386 -2.76802 -6.91223
upperback 0.345331 -1.80399 -0.0115742
thorax 15.05 -1.45955 3.05094
lowerneck 3.52873 0.215399 -1.16004
upperneck 14.0989 -1.59107 5.5495
head 4.06992 -1.13054 1.99491
rclavicle 5.96354e-016 -1.11319e-014
rhumerus -38.1856 -19.3838 -76.2399
rradius 32.9189
rwrist 0.694736
rhand -10.3981 -55.2542
rfingers 7.12502
rthumb 15.6002 -84.6451
lclavicle 5.96354e-016 -1.11319e-014
lhumerus -31.2992 7.39751 79.6569
lradius 21.7979
lwrist -5.90328
lhand -22.6421 -13.3726
lfingers 7.12502
lthumb 3.78873 16.5735
rfemur -22.9109 5.03328 19.8787
rtibia 5.2407
rfoot -17.3562 -3.53361
rtoes -11.1287
lfemur -23.9718 -8.99935 -21.3026
ltibia 7.29929
lfoot -5.21173 -4.21191
ltoes -14.4586
29
root -0.865713 17.9762 20.9689 -154.228 -3.02494 177.621
lowerback -27.1171 -2.74578 -6.93847
upperback 0.362921 -1.75512 -0.0460137
thorax 15.1023 -1.44046 3.04384
lowerneck 3.47917 0.157994 -1.17788
upperneck 14.16 -1.69187 5.63968
head 4.10786 -1.17944 2.02742
rclavicle -8.54774e-015 3.97569e-015
rhumerus -38.201 -19.3669 -76.2912
rradius 33.1461
rwrist 0.798621
rhand -10.7755 -54.4253
rfingers 7.12502
rthumb 15.2368 -83.8442
lclavicle -8.54774e-015 3.97569e-015
lhumerus -31.2008 6.85114 79.8968
lradius 22.2174
lwrist -5.26102
lhand -22.6448 -13.4508
lfingers 7.12502
lthumb 3.78615 16.4953
rfemur -22.9637 4.93405 19.8972
rtibia 5.24795
rfoot -17.2862 -3.49389
rtoes -11.5589
lfemur -24.0107 -8.9777 -21.3407
ltibia 7.30944
lfoot -5.16507 -4.19604
ltoes -14.8202
